<svg width="23" height="23" viewBox="0 0 23 23" fill="none" xmlns="http://www.w3.org/2000/svg">
<path fill-rule="evenodd" clip-rule="evenodd" d="M10.924 2C15.7494 2 19.675 5.9261 19.675 10.7515C19.675 15.5774 15.7494 19.503 10.924 19.503C9.47546 19.503 8.04486 19.1373 6.76422 18.4418L2 19.7183L3.27006 14.9794C2.55108 13.6817 2.1725 12.2272 2.1725 10.7515C2.1725 5.9261 6.0986 2 10.924 2ZM10.924 17.8484C14.8372 17.8484 18.0213 14.6647 18.0213 10.7515C18.0213 6.83782 14.8372 3.65508 10.924 3.65508C7.01078 3.65508 3.82666 6.83782 3.82666 10.7515C3.82666 12.0436 4.18638 13.3155 4.86488 14.4306L5.04888 14.7337L4.34002 17.3792L7.00112 16.6666L7.30104 16.8451C8.40228 17.5011 9.65532 17.8484 10.924 17.8484ZM14.1794 11.9682C14.5148 12.1688 15.076 12.4153 15.1666 12.8298C15.2098 13.0303 15.1707 13.2419 15.0925 13.4315C14.8285 14.0722 14.1725 14.4844 13.5074 14.6104C12.8716 14.7314 12.3477 14.5286 11.7589 14.3349C11.2345 14.1615 10.7276 13.9085 10.2575 13.6205C9.31584 13.0437 8.50256 12.2718 7.84844 11.384C7.64926 11.1131 7.46388 10.8302 7.29368 10.5399C7.06736 10.154 6.8668 9.7487 6.76192 9.31354C6.71776 9.13322 6.69476 8.94692 6.69292 8.75924C6.6851 8.10098 6.93672 7.43628 7.45744 7.01262C7.7592 6.76652 8.20494 6.65934 8.54396 6.8507C8.91242 7.05862 9.10332 7.58348 9.27398 7.95148C9.40738 8.23898 9.55918 8.61664 9.50398 8.94002C9.44878 9.2634 9.19302 9.53572 8.98924 9.77538C8.8517 9.9373 8.831 10.0753 8.94554 10.2501C9.6199 11.3739 10.556 12.1895 11.7778 12.6766C11.9447 12.7438 12.0735 12.7226 12.1816 12.5892C12.3928 12.3284 12.6007 11.8192 12.9259 11.6862C13.3505 11.5123 13.8192 11.7525 14.1794 11.9682Z" fill="#804D42"/>
</svg>
